Coordinates
version=1
nRows=13
nColumns=38
inDegrees=no

Units are S.I. units (second, meters, Newtons, ...)
If the header above contains a line with 'inDegrees', this indicates whether rotational values are in degrees (yes) or radians (no).

endheader
time	pelvis_tilt	pelvis_list	pelvis_rotation	pelvis_tx	pelvis_ty	pelvis_tz	hip_flexion_r	hip_adduction_r	hip_rotation_r	knee_angle_r	ankle_angle_r	subtalar_angle_r	mtp_angle_r	hip_flexion_l	hip_adduction_l	hip_rotation_l	knee_angle_l	ankle_angle_l	subtalar_angle_l	mtp_angle_l	lumbar_extension	lumbar_bending	lumbar_rotation	arm_flex_r	arm_add_r	arm_rot_r	elbow_flex_r	pro_sup_r	wrist_flex_r	wrist_dev_r	arm_flex_l	arm_add_l	arm_rot_l	elbow_flex_l	pro_sup_l	wrist_flex_l	wrist_dev_l
0.53	2.4053	1.47181	-1.00944	0.827222	0.39426	0.957765	0.284846	0.0644147	0.149868	1.04287	0.212526	0	0	0.101605	-0.0472356	-0.278029	0.399335	0.201125	0	0	-0.265387	0.0726109	0.189042	0.235347	-0.415492	-0.0098095	1.35367	0.934663	0	0	0.449783	-0.446288	0.468501	0.94221	0.614901	0	0
0.54	2.37461	1.46928	-0.97358	0.826377	0.40471	0.958969	0.302351	0.067369	0.132402	1.01863	0.216445	0	0	0.0821416	-0.0450835	-0.270384	0.382821	0.205051	0	0	-0.265824	0.0788155	0.182085	0.240284	-0.414327	-0.00716279	1.34979	0.933908	0	0	0.455025	-0.448654	0.477222	0.938665	0.607794	0	0
0.55	2.34091	1.46619	-0.933596	0.825457	0.415135	0.959973	0.319562	0.0694867	0.110984	0.993475	0.218531	0	0	0.0631057	-0.0439205	-0.261661	0.366975	0.20938	0	0	-0.265918	0.086165	0.174842	0.24494	-0.413214	-0.00529831	1.34524	0.933611	0	0	0.461605	-0.450295	0.488382	0.933452	0.598901	0	0
0.56	2.30198	1.46276	-0.888328	0.824643	0.425572	0.960742	0.336788	0.0715855	0.0869689	0.96736	0.220041	0	0	0.0450782	-0.0442607	-0.253372	0.352637	0.214414	0	0	-0.265314	0.0943714	0.168753	0.248593	-0.412169	-0.00514238	1.34097	0.933338	0	0	0.469183	-0.45075	0.501289	0.926329	0.587307	0	0
0.57	2.26205	1.45938	-0.842195	0.823922	0.435974	0.961306	0.353949	0.0733757	0.0612419	0.940201	0.221473	0	0	0.0280855	-0.0453483	-0.245615	0.339639	0.219822	0	0	-0.264319	0.10276	0.163779	0.251593	-0.411356	-0.00618599	1.33721	0.932673	0	0	0.477174	-0.449852	0.51368	0.91811	0.576232	0	0
0.58	2.22707	1.45597	-0.800179	0.823122	0.446285	0.961715	0.370358	0.0739859	0.0335129	0.911676	0.222656	0	0	0.01134	-0.0463021	-0.236483	0.326991	0.224965	0	0	-0.263738	0.11118	0.158927	0.254333	-0.411124	-0.00805474	1.33419	0.93225	0	0	0.485921	-0.447918	0.52598	0.909053	0.565961	0	0
0.59	2.19715	1.45232	-0.762628	0.822298	0.456589	0.961972	0.385706	0.0738152	0.004338	0.881957	0.223298	0	0	-0.00591997	-0.047156	-0.226702	0.313727	0.23	0	0	-0.263613	0.119645	0.154231	0.256688	-0.411614	-0.0102521	1.33194	0.932418	0	0	0.494815	-0.445499	0.537782	0.900287	0.556719	0	0
0.6	2.17029	1.4488	-0.728656	0.821618	0.466976	0.962054	0.40032	0.073597	-0.0246936	0.851305	0.223016	0	0	-0.0239547	-0.0479626	-0.218101	0.299148	0.234969	0	0	-0.26341	0.127664	0.150308	0.258347	-0.412669	-0.0121124	1.33017	0.93279	0	0	0.50284	-0.442896	0.547615	0.892907	0.548937	0	0
0.61	2.14595	1.44576	-0.697377	0.821005	0.477441	0.961954	0.414548	0.0729079	-0.0536458	0.8198	0.222451	0	0	-0.0425089	-0.0484689	-0.210358	0.283115	0.239715	0	0	-0.262898	0.135102	0.146468	0.259478	-0.414244	-0.0134404	1.32871	0.932263	0	0	0.509945	-0.440172	0.555262	0.886724	0.542757	0	0
0.62	2.12518	1.44318	-0.669534	0.820377	0.487947	0.96171	0.428062	0.0716521	-0.0822751	0.787296	0.221865	0	0	-0.0615715	-0.0486175	-0.203163	0.266051	0.24424	0	0	-0.262465	0.142064	0.142195	0.260307	-0.416126	-0.0143279	1.32777	0.931161	0	0	0.516109	-0.437551	0.560587	0.881772	0.538521	0	0
0.63	2.1061	1.44115	-0.643542	0.819794	0.498566	0.9613	0.440819	0.0702486	-0.110076	0.753564	0.222022	0	0	-0.0807067	-0.0483955	-0.196404	0.24828	0.247662	0	0	-0.261782	0.148541	0.137568	0.260955	-0.417802	-0.0152025	1.32725	0.929703	0	0	0.520652	-0.435399	0.562947	0.878827	0.536485	0	0
0.64	2.08914	1.43967	-0.62009	0.819318	0.509268	0.960749	0.452837	0.0689376	-0.136325	0.718791	0.222812	0	0	-0.0994942	-0.0479677	-0.190398	0.231232	0.250477	0	0	-0.261065	0.154267	0.132834	0.261554	-0.418854	-0.016573	1.32712	0.928514	0	0	0.523717	-0.433659	0.562402	0.877839	0.536846	0	0
0.65	2.07343	1.43857	-0.598279	0.818942	0.520119	0.960047	0.463916	0.0679339	-0.16141	0.682964	0.224314	0	0	-0.117971	-0.0477206	-0.18513	0.215142	0.253646	0	0	-0.260201	0.159594	0.127953	0.261931	-0.419482	-0.0179026	1.32772	0.928736	0	0	0.524973	-0.432091	0.558384	0.878664	0.539716	0	0
